<svg xmlns="http://www.w3.org/2000/svg" xmlns:xlink="http://www.w3.org/1999/xlink" width="500" zoomAndPan="magnify" viewBox="0 0 375 374.999991" height="500" preserveAspectRatio="xMidYMid meet" version="1.0"><defs><clipPath id="id1"><path d="M 0 0 L 374.25 0 L 374.25 374.25 L 0 374.25 Z M 0 0 " clip-rule="nonzero"/></clipPath><clipPath id="id2"><path d="M 58.5 51 L 308 51 L 308 316.5 L 58.5 316.5 Z M 58.5 51 " clip-rule="nonzero"/></clipPath></defs><rect x="-37.5" width="450" fill="#ffffff" y="-37.499999" height="449.999989" fill-opacity="1"/><rect x="-37.5" width="450" fill="#ffffff" y="-37.499999" height="449.999989" fill-opacity="1"/><rect x="-37.5" width="450" fill="#ffffff" y="-37.499999" height="449.999989" fill-opacity="1"/><rect x="-37.5" width="450" fill="#ffffff" y="-37.499999" height="449.999989" fill-opacity="1"/><g clip-path="url(#id1)"><path fill="#919191" d="M 186.75 -0.75 C 83.195312 -0.75 -0.75 83.195312 -0.75 186.75 C -0.75 290.304688 83.195312 374.25 186.75 374.25 C 290.304688 374.25 374.25 290.304688 374.25 186.75 C 374.25 83.195312 290.304688 -0.75 186.75 -0.75 " fill-opacity="1" fill-rule="nonzero"/></g><g clip-path="url(#id2)"><path fill="#d9d9d9" d="M 303.472656 52.246094 C 304.074219 52.617188 304.617188 53.058594 305.105469 53.566406 C 305.59375 54.078125 306.011719 54.644531 306.355469 55.261719 C 306.699219 55.878906 306.960938 56.527344 307.140625 57.210938 C 307.316406 57.894531 307.40625 58.589844 307.40625 59.296875 L 307.40625 308.203125 C 307.40625 308.746094 307.351562 309.289062 307.246094 309.820312 C 307.140625 310.355469 306.984375 310.875 306.773438 311.378906 C 306.566406 311.882812 306.3125 312.359375 306.007812 312.8125 C 305.707031 313.265625 305.363281 313.683594 304.976562 314.070312 C 304.589844 314.457031 304.171875 314.800781 303.71875 315.101562 C 303.265625 315.40625 302.789062 315.660156 302.285156 315.867188 C 301.78125 316.078125 301.261719 316.234375 300.726562 316.339844 C 300.195312 316.445312 299.652344 316.5 299.109375 316.5 L 249.328125 316.5 C 248.785156 316.5 248.242188 316.445312 247.710938 316.339844 C 247.175781 316.234375 246.65625 316.078125 246.152344 315.867188 C 245.648438 315.660156 245.171875 315.40625 244.71875 315.101562 C 244.265625 314.800781 243.847656 314.457031 243.460938 314.070312 C 243.074219 313.683594 242.730469 313.265625 242.429688 312.8125 C 242.125 312.359375 241.871094 311.882812 241.664062 311.378906 C 241.453125 310.875 241.296875 310.355469 241.191406 309.820312 C 241.085938 309.289062 241.03125 308.746094 241.03125 308.203125 L 241.03125 283.3125 L 224.4375 283.3125 L 224.4375 308.203125 C 224.4375 308.746094 224.382812 309.289062 224.277344 309.820312 C 224.171875 310.355469 224.015625 310.875 223.804688 311.378906 C 223.597656 311.882812 223.34375 312.359375 223.039062 312.8125 C 222.738281 313.265625 222.394531 313.683594 222.007812 314.070312 C 221.621094 314.457031 221.203125 314.800781 220.75 315.101562 C 220.296875 315.40625 219.820312 315.660156 219.316406 315.867188 C 218.8125 316.078125 218.292969 316.234375 217.757812 316.339844 C 217.226562 316.445312 216.683594 316.5 216.140625 316.5 L 66.796875 316.5 C 66.253906 316.5 65.710938 316.445312 65.179688 316.339844 C 64.644531 316.234375 64.125 316.078125 63.621094 315.867188 C 63.117188 315.660156 62.640625 315.40625 62.1875 315.101562 C 61.734375 314.800781 61.316406 314.457031 60.929688 314.070312 C 60.542969 313.683594 60.199219 313.265625 59.898438 312.8125 C 59.59375 312.359375 59.339844 311.882812 59.132812 311.378906 C 58.921875 310.875 58.765625 310.355469 58.660156 309.820312 C 58.554688 309.289062 58.5 308.746094 58.5 308.203125 L 58.5 216.9375 C 58.5 216.066406 58.636719 215.21875 58.902344 214.390625 C 59.171875 213.5625 59.558594 212.796875 60.070312 212.089844 C 60.578125 211.382812 61.183594 210.773438 61.882812 210.257812 C 62.585938 209.742188 63.347656 209.347656 64.175781 209.070312 L 158.0625 177.777344 L 158.0625 125.671875 C 158.0625 124.902344 158.167969 124.148438 158.378906 123.40625 C 158.589844 122.664062 158.894531 121.96875 159.300781 121.3125 C 159.703125 120.660156 160.191406 120.070312 160.757812 119.550781 C 161.324219 119.03125 161.953125 118.597656 162.640625 118.253906 L 295.390625 51.878906 C 296.027344 51.5625 296.6875 51.332031 297.378906 51.183594 C 298.074219 51.035156 298.773438 50.976562 299.480469 51.011719 C 300.1875 51.042969 300.878906 51.164062 301.554688 51.371094 C 302.230469 51.582031 302.871094 51.871094 303.472656 52.246094 Z M 158.0625 195.265625 L 75.09375 222.910156 L 75.09375 299.90625 L 158.0625 299.90625 Z M 174.65625 299.90625 L 207.84375 299.90625 L 207.84375 275.015625 C 207.84375 274.472656 207.898438 273.929688 208.003906 273.398438 C 208.109375 272.863281 208.265625 272.34375 208.476562 271.839844 C 208.683594 271.335938 208.9375 270.859375 209.242188 270.40625 C 209.542969 269.953125 209.886719 269.535156 210.273438 269.148438 C 210.660156 268.761719 211.078125 268.417969 211.53125 268.117188 C 211.984375 267.8125 212.460938 267.558594 212.964844 267.351562 C 213.46875 267.140625 213.988281 266.984375 214.523438 266.878906 C 215.054688 266.773438 215.597656 266.71875 216.140625 266.71875 L 249.328125 266.71875 C 249.871094 266.71875 250.414062 266.773438 250.945312 266.878906 C 251.480469 266.984375 252 267.140625 252.503906 267.351562 C 253.007812 267.558594 253.484375 267.8125 253.9375 268.117188 C 254.390625 268.417969 254.808594 268.761719 255.195312 269.148438 C 255.582031 269.535156 255.925781 269.953125 256.226562 270.40625 C 256.53125 270.859375 256.785156 271.335938 256.992188 271.839844 C 257.203125 272.34375 257.359375 272.863281 257.464844 273.398438 C 257.570312 273.929688 257.625 274.472656 257.625 275.015625 L 257.625 299.90625 L 290.8125 299.90625 L 290.8125 72.722656 L 174.65625 130.800781 Z M 174.65625 299.90625 " fill-opacity="1" fill-rule="evenodd"/></g><path fill="#d9d9d9" d="M 91.6875 233.53125 L 108.28125 233.53125 L 108.28125 250.125 L 91.6875 250.125 Z M 124.875 233.53125 L 141.46875 233.53125 L 141.46875 250.125 L 124.875 250.125 Z M 91.6875 266.71875 L 108.28125 266.71875 L 108.28125 283.3125 L 91.6875 283.3125 Z M 124.875 266.71875 L 141.46875 266.71875 L 141.46875 283.3125 L 124.875 283.3125 Z M 191.25 200.34375 L 207.84375 200.34375 L 207.84375 216.9375 L 191.25 216.9375 Z M 224.4375 200.34375 L 241.03125 200.34375 L 241.03125 216.9375 L 224.4375 216.9375 Z M 191.25 233.53125 L 207.84375 233.53125 L 207.84375 250.125 L 191.25 250.125 Z M 224.4375 233.53125 L 241.03125 233.53125 L 241.03125 250.125 L 224.4375 250.125 Z M 257.625 200.34375 L 274.21875 200.34375 L 274.21875 216.9375 L 257.625 216.9375 Z M 257.625 233.53125 L 274.21875 233.53125 L 274.21875 250.125 L 257.625 250.125 Z M 191.25 167.15625 L 207.84375 167.15625 L 207.84375 183.75 L 191.25 183.75 Z M 224.4375 167.15625 L 241.03125 167.15625 L 241.03125 183.75 L 224.4375 183.75 Z M 257.625 167.15625 L 274.21875 167.15625 L 274.21875 183.75 L 257.625 183.75 Z M 191.25 133.96875 L 207.84375 133.96875 L 207.84375 150.5625 L 191.25 150.5625 Z M 224.4375 133.96875 L 241.03125 133.96875 L 241.03125 150.5625 L 224.4375 150.5625 Z M 257.625 133.96875 L 274.21875 133.96875 L 274.21875 150.5625 L 257.625 150.5625 Z M 257.625 100.78125 L 274.21875 100.78125 L 274.21875 117.375 L 257.625 117.375 Z M 257.625 100.78125 " fill-opacity="1" fill-rule="nonzero"/></svg>